<?xml version="1.0" encoding="UTF-8" standalone="no"?>
<!DOCTYPE svg PUBLIC "-//W3C//DTD SVG 1.1//EN" "http://www.w3.org/Graphics/SVG/1.1/DTD/svg11.dtd">
<svg width="100%" height="100%" viewBox="0 0 651 690" version="1.1" xmlns="http://www.w3.org/2000/svg" xmlns:xlink="http://www.w3.org/1999/xlink" xml:space="preserve" xmlns:serif="http://www.serif.com/" style="fill-rule:evenodd;clip-rule:evenodd;stroke-linejoin:round;stroke-miterlimit:2;">
    <g transform="matrix(1,0,0,1,-174.79,-155.265)">
        <g transform="matrix(1.11329,0,0,1.11329,-186.654,29.1243)">
            <g transform="matrix(0.738703,0,0,0.738703,231.136,-77.7582)">
                <path d="M261.939,500.189C260.999,492.81 260.517,485.313 260.517,477.717C260.517,367.159 362.743,277.4 488.658,277.4C599.072,277.4 691.272,346.421 712.295,437.949L713.682,437.949C815.823,437.949 898.748,507.167 898.748,592.425C898.748,657.655 850.205,713.497 781.66,736.129C766.245,743.051 749.164,746.9 731.19,746.9L268.81,746.9C200.676,746.9 145.36,691.584 145.36,623.45C145.36,557.619 197,503.754 261.939,500.189Z" style="fill:rgb(204,219,238);"/>
                <path d="M746.797,457.587C856.343,536.534 879.625,607.703 834.157,659.743C793.719,706.026 705.433,735.365 586.887,740.371C583.283,740.441 580.414,743.425 580.485,747.028C580.555,750.632 583.539,753.501 587.142,753.43C713.333,753.812 807.778,724.173 852.968,676.943C910.053,617.281 896.152,527.49 769.655,427.335C761.307,421.027 749.408,422.684 743.1,431.032C736.792,439.38 738.448,451.279 746.797,457.587Z" style="fill:url(#_Linear1);"/>
                <path d="M134.36,580.352C136.668,674.997 189.198,725.373 266.38,747.831C355.101,773.648 477.39,761.337 584.024,741.583C587.543,741.016 589.94,737.698 589.373,734.179C588.806,730.66 585.533,728.837 581.969,728.83C456.988,728.59 384.918,721.954 295.778,715.373C222.274,709.946 170.121,657.83 171.86,580.316C171.85,569.968 163.44,561.574 153.092,561.584C142.744,561.594 134.35,570.004 134.36,580.352Z" style="fill:url(#_Linear2);"/>
                <path d="M470.425,294.972C537.916,316.967 590.248,342.162 628.445,368.461C669.419,396.673 693.998,425.498 702.806,452.338C703.777,455.768 709.435,455.067 712.865,454.096C716.295,453.125 716.207,452.249 715.236,448.819C708.044,418.741 684.271,384.744 642.108,350.27C604.494,319.516 552.075,288.613 483.503,259.827C473.805,256.218 463,261.162 459.391,270.861C455.782,280.559 460.726,291.363 470.425,294.972Z" style="fill:url(#_Linear3);"/>
                <path d="M241.861,483.807C176.252,496.417 126.61,554.18 126.61,623.45C126.61,701.933 190.328,765.65 268.81,765.65L731.19,765.65C751.553,765.65 770.92,761.357 788.447,753.632C864.614,728.126 917.498,665.088 917.498,592.425C917.498,501.485 833.885,425.309 726.738,419.55C698.121,327.318 602.646,258.65 488.658,258.65C351.767,258.65 241.767,357.522 241.767,477.717C241.767,479.754 241.798,481.784 241.861,483.807ZM262.967,518.911C268.166,518.625 273.012,516.191 276.345,512.191C279.677,508.191 281.197,502.985 280.539,497.82C279.698,491.219 279.267,484.512 279.267,477.717C279.267,376.793 373.715,296.15 488.658,296.15C589.716,296.15 674.779,358.374 694.021,442.147C695.977,450.663 703.557,456.699 712.295,456.699L713.682,456.699C804.638,456.699 879.998,516.503 879.998,592.425C879.998,649.939 836.218,698.369 775.781,718.325C775.169,718.527 774.568,718.761 773.979,719.025C760.911,724.893 746.428,728.15 731.19,728.15C731.19,728.15 268.81,728.15 268.81,728.15C211.024,728.15 164.11,681.236 164.11,623.45C164.11,567.622 207.895,521.934 262.967,518.911Z" style="fill:rgb(27,51,81);"/>
                <path d="M263.769,518.849C302.219,515.08 327.35,536.829 338.892,560.441C345.714,574.398 348.597,588.879 344.676,598.019C340.597,607.529 345.006,618.562 354.517,622.642C364.027,626.721 375.061,622.312 379.14,612.801C384.656,599.941 385.337,581.243 379.502,561.652C367.245,520.499 327.288,474.943 260.11,481.528C249.811,482.538 242.269,491.719 243.279,502.018C244.288,512.317 253.47,519.859 263.769,518.849Z" style="fill:rgb(27,51,81);"/>
            </g>
            <g transform="matrix(0.784496,0,0,0.784496,140.185,-50.7853)">
                <g transform="matrix(0.898238,0,0,0.898238,203.459,86.2453)">
                    <path d="M216.957,745.361L690.448,745.361C690.706,745.361 690.964,745.356 691.221,745.346C691.221,745.346 712.379,744.434 729.852,751.971C737.488,755.264 744.868,760.322 745.549,770.254C746.004,776.883 745.07,782.079 742.623,786.019C738.861,792.076 732.182,794.843 725.779,796.663C711.125,800.828 696.07,799.166 696.07,799.166C684.947,797.935 674.917,805.965 673.686,817.088C672.454,828.211 680.485,838.241 691.608,839.473L736.866,835.671C752.657,831.183 767.793,822.353 777.071,807.416C783.317,797.361 787.168,784.399 786.007,767.479C784.134,740.171 766.908,723.79 745.914,714.734C722.547,704.655 694.695,704.729 690.278,704.809C690.3,704.808 216.957,704.808 216.957,704.808C205.766,704.808 196.681,713.894 196.681,725.085C196.681,736.275 205.766,745.361 216.957,745.361Z" style="fill:rgb(27,51,81);"/>
                </g>
                <g transform="matrix(-0.898238,0,0,0.898238,1037.9,244.07)">
                    <path d="M216.957,704.808L690.3,704.808C694.596,704.729 722.506,704.637 745.914,714.734C766.908,723.79 784.134,740.171 786.007,767.479C787.168,784.399 783.317,797.361 777.071,807.416C767.793,822.353 752.657,831.183 736.866,835.671C714.542,842.016 691.608,839.473 691.608,839.473C680.485,838.241 672.454,828.211 673.686,817.088C674.917,805.965 684.947,797.935 696.07,799.166L725.779,796.663C732.182,794.843 738.861,792.076 742.623,786.019C745.07,782.079 746.004,776.883 745.549,770.254C744.868,760.322 737.488,755.264 729.852,751.971C712.379,744.434 691.221,745.346 691.221,745.346C690.964,745.356 690.706,745.361 690.448,745.361L216.957,745.361C205.766,745.361 196.681,736.275 196.681,725.085C196.681,713.894 205.766,704.808 216.957,704.808Z" style="fill:rgb(27,51,81);"/>
                </g>
                <g transform="matrix(0.898238,0,0,0.898238,203.459,29.7451)">
                    <path d="M582.181,862.36L133.729,862.36C122.539,862.36 113.453,871.445 113.453,882.636C113.453,893.827 122.539,902.912 133.729,902.912L582.181,902.912C593.372,902.912 602.458,893.827 602.458,882.636C602.458,871.445 593.372,862.36 582.181,862.36Z" style="fill:rgb(27,51,81);"/>
                </g>
                <g transform="matrix(0.898238,0,0,0.898238,143.311,187.57)">
                    <path d="M582.181,862.36L379.172,862.36C367.981,862.36 358.896,871.445 358.896,882.636C358.896,893.827 367.981,902.912 379.172,902.912L582.181,902.912C593.372,902.912 602.458,893.827 602.458,882.636C602.458,871.445 593.372,862.36 582.181,862.36Z" style="fill:rgb(27,51,81);"/>
                </g>
                <g transform="matrix(0.556905,0,0,0.556905,518.801,488.842)">
                    <path d="M582.181,849.932L379.172,849.932C361.122,849.932 346.468,864.586 346.468,882.636C346.468,900.686 361.122,915.34 379.172,915.34L582.181,915.34C600.231,915.34 614.885,900.686 614.885,882.636C614.885,864.586 600.231,849.932 582.181,849.932Z" style="fill:rgb(27,51,81);"/>
                </g>
            </g>
        </g>
    </g>
    <defs>
        <linearGradient id="_Linear1" x1="0" y1="0" x2="1" y2="0" gradientUnits="userSpaceOnUse" gradientTransform="matrix(283.405,0,0,304.439,587.014,594.681)"><stop offset="0" style="stop-color:white;stop-opacity:1"/><stop offset="1" style="stop-color:rgb(60,113,180);stop-opacity:0.02"/></linearGradient>
        <linearGradient id="_Linear2" x1="0" y1="0" x2="1" y2="0" gradientUnits="userSpaceOnUse" gradientTransform="matrix(123.019,185.018,-185.018,123.019,150.792,561.882)"><stop offset="0" style="stop-color:rgb(73,127,194);stop-opacity:0.76"/><stop offset="1" style="stop-color:rgb(69,114,170);stop-opacity:0.27"/></linearGradient>
        <linearGradient id="_Linear3" x1="0" y1="0" x2="1" y2="0" gradientUnits="userSpaceOnUse" gradientTransform="matrix(192.948,132.725,-132.725,192.948,460.221,268.447)"><stop offset="0" style="stop-color:white;stop-opacity:1"/><stop offset="1" style="stop-color:rgb(156,185,222);stop-opacity:0.49"/></linearGradient>
    </defs>
</svg>
