<?xml version="1.0" encoding="UTF-8" standalone="no"?>
<!DOCTYPE svg PUBLIC "-//W3C//DTD SVG 1.1//EN" "http://www.w3.org/Graphics/SVG/1.1/DTD/svg11.dtd">
<svg width="100%" height="100%" viewBox="0 0 983 934" version="1.1" xmlns="http://www.w3.org/2000/svg" xmlns:xlink="http://www.w3.org/1999/xlink" xml:space="preserve" xmlns:serif="http://www.serif.com/" style="fill-rule:evenodd;clip-rule:evenodd;stroke-linejoin:round;stroke-miterlimit:2;">
    <g transform="matrix(1,0,0,1,-8.70692,-33.246)">
        <g transform="matrix(1.33625,0,0,1.33625,-321.686,-139.336)">
            <g transform="matrix(0.704324,0,0,0.704324,205.283,87.1833)">
                <g transform="matrix(0.844673,0,0,0.844673,77.6637,77.6637)">
                    <path d="M965.996,318.526C987.952,374.803 1000,436.005 1000,500C1000,775.958 775.958,1000 500,1000C224.042,1000 0,775.958 0,500C0,224.042 224.042,0 500,0C572.604,0 641.615,15.509 703.912,43.398C653.998,40.981 602.823,52.126 556.085,78.424C423.796,152.862 419.2,293.911 493.638,426.2C568.076,558.49 693.54,632.246 825.829,557.808C915.297,507.466 965.74,414.404 965.996,318.526Z" style="fill:rgb(135,223,229);"/>
                </g>
                <path d="M885.067,444.011C819.138,595.269 695.879,603.552 597.265,546.35C571.878,531.624 548.099,512.766 527.194,491.003C506.425,469.382 488.49,444.949 474.838,418.742C424.282,321.685 434.44,200.797 576.354,117.266C581.873,114.143 583.817,107.126 580.694,101.607C577.57,96.089 570.553,94.144 565.035,97.268C401.737,186.077 388.38,324.053 442.85,434.928C457.449,464.646 477.178,492.421 500.407,516.689C523.763,541.09 550.681,562.004 579.457,577.851C693.859,640.851 836.83,628.627 906.289,452.825C908.721,446.968 905.941,440.239 900.085,437.807C894.228,435.374 887.499,438.154 885.067,444.011Z" style="fill:url(#_Linear1);"/>
                <path d="M736.842,826.701C483.743,908.296 278.763,862.805 159.178,591.784L93.858,616.132L148.128,733.521L248.17,838.979L460.847,922.336L589.217,922.336L747.271,842.326L736.842,826.701Z" style="fill:url(#_Linear2);"/>
                <path d="M745.443,820.96C742.876,817.115 738.069,815.44 733.669,816.859C607.705,855.944 494.334,863.484 398.159,826.436C306.069,790.962 230.24,714.19 174.315,585.105C170.779,577.091 161.608,573.222 153.4,576.282L88.036,600.511C83.686,602.132 80.209,605.494 78.442,609.787C76.675,614.079 76.778,618.914 78.726,623.128L133.195,740.424C133.947,742.051 134.959,743.543 136.193,744.843L236.841,849.725C238.417,851.387 240.339,852.681 242.472,853.517L455.839,935.115C457.435,935.74 459.133,936.061 460.847,936.061L589.217,934.776C591.169,934.776 593.094,934.316 594.835,933.435L752.039,851.743C754.733,850.38 756.714,847.927 757.481,845.007C758.248,842.086 757.727,838.977 756.051,836.466L745.443,820.96ZM725.603,841.239L586.377,909.869C586.377,909.869 463.566,908.638 463.566,908.638C463.566,908.638 257.196,825.777 257.196,825.777C257.196,825.777 161.956,724.217 161.956,724.217C161.956,724.217 116.499,625.45 116.499,625.45C116.499,625.45 150.595,612.67 150.595,612.67C211.642,741.558 292.325,818.021 388.19,853.014C486.053,888.736 600.053,881.098 725.603,841.239Z" style="fill:none;"/>
                <path d="M115.814,607.948C66.467,314.722 242.757,173.642 569.961,120.978L600.77,77.664L395.283,90.77L281.405,138.641L181.316,222.971L109.467,339.042L77.664,483.954L93.858,603.338L115.814,607.948Z" style="fill:white;fill-opacity:0.5;"/>
                <path d="M113.688,618.069C117.034,618.771 120.511,617.775 122.977,615.406C125.443,613.038 126.578,609.604 126.011,606.232C102.087,454.555 139.291,345.441 227.917,269.294C306.09,202.128 423.413,160.43 572.595,137.34C576.977,136.635 580.893,134.201 583.466,130.584L614.348,87.322C618.074,82.084 618.455,75.172 615.328,69.557C612.201,63.942 606.123,60.626 599.71,61.035L394.257,74.67C392.459,74.784 390.692,75.199 389.032,75.898L275.44,124.453C274.008,125.055 272.676,125.87 271.488,126.871L172.031,211.95C170.866,212.931 169.864,214.091 169.063,215.386L98.22,332.08C97.433,333.351 96.867,334.746 96.547,336.206L66.134,481.423C65.837,482.775 65.78,484.169 65.966,485.541L83.374,604.76C83.976,609.195 87.303,612.772 91.684,613.692L113.688,618.069ZM97.878,550.326L89.636,484.559C89.636,484.559 117.626,362.617 121.854,344.196C121.854,344.196 192.281,232.599 192.281,232.599C192.281,232.599 289.438,151.974 289.438,151.974C289.438,151.974 398.956,106.708 398.956,106.708C398.956,106.708 509.075,99.969 567.054,96.421C567.054,96.421 560.414,105.789 560.414,105.789C408.093,131.987 288.492,177.336 209.14,247.797C127.56,320.235 87.47,418.86 97.878,550.326Z" style="fill:none;"/>
                <g transform="matrix(0.844673,0,0,0.844673,77.6637,77.6637)">
                    <path d="M985.93,310.749C982.193,301.172 972.173,295.605 962.067,297.493C951.961,299.38 944.626,308.188 944.599,318.469C944.362,406.896 897.85,492.73 815.336,539.16C694.184,607.331 580.457,536.86 512.286,415.707C444.191,294.691 445.562,165.167 566.578,97.072C609.672,72.824 656.855,62.541 702.877,64.77C713.154,65.268 722.331,58.38 724.723,48.373C727.116,38.366 722.046,28.073 712.655,23.868C647.687,-5.217 575.718,-21.397 500,-21.397C212.233,-21.397 -21.397,212.233 -21.397,500C-21.397,787.767 212.233,1021.4 500,1021.4C787.767,1021.4 1021.4,787.767 1021.4,500C1021.4,433.263 1008.83,369.438 985.93,310.749ZM971.062,414.981C976.017,442.577 978.603,470.989 978.603,500C978.603,764.148 764.148,978.603 500,978.603C235.852,978.603 21.397,764.148 21.397,500C21.397,235.852 235.852,21.397 500,21.397C537.014,21.397 573.053,25.607 607.665,33.575C586.474,39.791 565.654,48.488 545.592,59.776C402.02,140.563 394.203,293.121 474.99,436.693C555.7,580.13 692.886,657.166 836.322,576.456C902.039,539.478 948.224,481.116 971.062,414.982L971.062,414.981Z" style="fill:rgb(4,4,75);"/>
                </g>
                <path d="M205.349,537.971C212.256,528.676 220.782,523.492 230.058,519.419C231.96,518.584 233.944,517.963 235.941,517.213C238.949,516.084 241.974,514.802 245.389,513.991C254.091,511.925 263.655,510.013 275.615,511.106C281.745,512.732 288.042,509.076 289.668,502.947C291.294,496.817 287.638,490.521 281.509,488.894C267.185,482.341 254.524,479.46 242.709,479.154C235.954,478.979 229.59,480.076 223.795,482.131C215.358,485.123 207.915,489.927 202.027,496.376C194.295,504.846 188.613,514.983 184.895,527.498C182.005,533.143 184.241,540.072 189.886,542.962C195.53,545.852 202.459,543.615 205.349,537.971Z" style="fill:rgb(4,4,75);"/>
                <g transform="matrix(1,0,0,1,146.341,-55.199)">
                    <path d="M205.349,537.971C212.256,528.676 220.782,523.492 230.058,519.419C231.96,518.584 233.944,517.963 235.941,517.213C238.949,516.084 241.974,514.802 245.389,513.991C254.091,511.925 263.655,510.013 275.615,511.106C281.745,512.732 288.042,509.076 289.668,502.947C291.294,496.817 287.638,490.521 281.509,488.894C267.185,482.341 254.524,479.46 242.709,479.154C235.954,478.979 229.59,480.076 223.795,482.131C215.358,485.123 207.915,489.927 202.027,496.376C194.295,504.846 188.613,514.983 184.895,527.498C182.005,533.143 184.241,540.072 189.886,542.962C195.53,545.852 202.459,543.615 205.349,537.971Z" style="fill:rgb(4,4,75);"/>
                </g>
                <g transform="matrix(1,0,0,1,29.525,-26.9576)">
                    <path d="M276.162,590.51C283.89,595.465 290.672,598.508 296.739,599.865C303.962,601.479 310.239,600.455 315.179,597.905C319.63,595.607 323.237,591.921 325.541,586.891C326.723,584.309 327.742,581.439 328.212,578.119C328.955,572.872 328.973,566.778 327.884,559.585C327.825,556.453 325.234,553.957 322.102,554.016C318.969,554.075 316.473,556.666 316.532,559.798C315.869,565.671 314.441,570.369 312.896,574.351C311.483,577.992 309.449,580.24 306.764,581.615C303.982,583.038 300.579,583.567 296.1,583.103C291.705,582.647 286.724,581.99 280.962,580.221C278.123,578.897 274.742,580.127 273.418,582.966C272.093,585.805 273.323,589.186 276.162,590.51Z" style="fill:rgb(4,4,75);"/>
                </g>
            </g>
            <g transform="matrix(0.71739,0,0,0.71739,324.382,278.487)">
                <path d="M261.939,500.189C260.999,492.81 260.517,485.313 260.517,477.717C260.517,367.159 362.743,277.4 488.658,277.4C599.072,277.4 691.272,346.421 712.295,437.949L713.682,437.949C815.823,437.949 898.748,507.167 898.748,592.425C898.748,657.655 850.205,713.497 781.66,736.129C766.245,743.051 749.164,746.9 731.19,746.9L268.81,746.9C200.676,746.9 145.36,691.584 145.36,623.45C145.36,557.619 197,503.754 261.939,500.189Z" style="fill:rgb(204,219,238);"/>
                <path d="M746.797,457.587C856.343,536.534 879.625,607.703 834.157,659.743C793.719,706.026 705.433,735.365 586.887,740.371C583.283,740.441 580.414,743.425 580.485,747.028C580.555,750.632 583.539,753.501 587.142,753.43C713.333,753.812 807.778,724.173 852.968,676.943C910.053,617.281 896.152,527.49 769.655,427.335C761.307,421.027 749.408,422.684 743.1,431.032C736.792,439.38 738.448,451.279 746.797,457.587Z" style="fill:url(#_Linear3);"/>
                <path d="M134.36,580.352C136.668,674.997 189.198,725.373 266.38,747.831C355.101,773.648 477.39,761.337 584.024,741.583C587.543,741.016 589.94,737.698 589.373,734.179C588.806,730.66 585.533,728.837 581.969,728.83C456.988,728.59 384.918,721.954 295.778,715.373C222.274,709.946 170.121,657.83 171.86,580.316C171.85,569.968 163.44,561.574 153.092,561.584C142.744,561.594 134.35,570.004 134.36,580.352Z" style="fill:url(#_Linear4);"/>
                <path d="M470.425,294.972C537.916,316.967 590.248,342.162 628.445,368.461C669.419,396.673 693.998,425.498 702.806,452.338C703.777,455.768 709.435,455.067 712.865,454.096C716.295,453.125 716.207,452.249 715.236,448.819C708.044,418.741 684.271,384.744 642.108,350.27C604.494,319.516 552.075,288.613 483.503,259.827C473.805,256.218 463,261.162 459.391,270.861C455.782,280.559 460.726,291.363 470.425,294.972Z" style="fill:url(#_Linear5);"/>
                <path d="M241.861,483.807C176.252,496.417 126.61,554.18 126.61,623.45C126.61,701.933 190.328,765.65 268.81,765.65L731.19,765.65C751.553,765.65 770.92,761.357 788.447,753.632C864.614,728.126 917.498,665.088 917.498,592.425C917.498,501.485 833.885,425.309 726.738,419.55C698.121,327.318 602.646,258.65 488.658,258.65C351.767,258.65 241.767,357.522 241.767,477.717C241.767,479.754 241.798,481.784 241.861,483.807ZM262.967,518.911C268.166,518.625 273.012,516.191 276.345,512.191C279.677,508.191 281.197,502.985 280.539,497.82C279.698,491.219 279.267,484.512 279.267,477.717C279.267,376.793 373.715,296.15 488.658,296.15C589.716,296.15 674.779,358.374 694.021,442.147C695.977,450.663 703.557,456.699 712.295,456.699L713.682,456.699C804.638,456.699 879.998,516.503 879.998,592.425C879.998,649.939 836.218,698.369 775.781,718.325C775.169,718.527 774.568,718.761 773.979,719.025C760.911,724.893 746.428,728.15 731.19,728.15C731.19,728.15 268.81,728.15 268.81,728.15C211.024,728.15 164.11,681.236 164.11,623.45C164.11,567.622 207.895,521.934 262.967,518.911Z" style="fill:rgb(27,51,81);"/>
                <path d="M263.769,518.849C302.219,515.08 327.35,536.829 338.892,560.441C345.714,574.398 348.597,588.879 344.676,598.019C340.597,607.529 345.006,618.562 354.517,622.642C364.027,626.721 375.061,622.312 379.14,612.801C384.656,599.941 385.337,581.243 379.502,561.652C367.245,520.499 327.288,474.943 260.11,481.528C249.811,482.538 242.269,491.719 243.279,502.018C244.288,512.317 253.47,519.859 263.769,518.849Z" style="fill:rgb(27,51,81);"/>
            </g>
        </g>
    </g>
    <defs>
        <linearGradient id="_Linear1" x1="0" y1="0" x2="1" y2="0" gradientUnits="userSpaceOnUse" gradientTransform="matrix(477.887,0,0,492.908,417.791,353.721)"><stop offset="0" style="stop-color:rgb(124,124,248);stop-opacity:0.33"/><stop offset="1" style="stop-color:white;stop-opacity:0.39"/></linearGradient>
        <linearGradient id="_Linear2" x1="0" y1="0" x2="1" y2="0" gradientUnits="userSpaceOnUse" gradientTransform="matrix(641.848,823.284,-823.284,641.848,126.791,600.175)"><stop offset="0" style="stop-color:rgb(4,4,75);stop-opacity:0"/><stop offset="1" style="stop-color:rgb(4,4,191);stop-opacity:1"/></linearGradient>
        <linearGradient id="_Linear3" x1="0" y1="0" x2="1" y2="0" gradientUnits="userSpaceOnUse" gradientTransform="matrix(283.405,0,0,304.439,587.014,594.681)"><stop offset="0" style="stop-color:white;stop-opacity:1"/><stop offset="1" style="stop-color:rgb(60,113,180);stop-opacity:0.02"/></linearGradient>
        <linearGradient id="_Linear4" x1="0" y1="0" x2="1" y2="0" gradientUnits="userSpaceOnUse" gradientTransform="matrix(123.019,185.018,-185.018,123.019,150.792,561.882)"><stop offset="0" style="stop-color:rgb(73,127,194);stop-opacity:0.76"/><stop offset="1" style="stop-color:rgb(69,114,170);stop-opacity:0.27"/></linearGradient>
        <linearGradient id="_Linear5" x1="0" y1="0" x2="1" y2="0" gradientUnits="userSpaceOnUse" gradientTransform="matrix(192.948,132.725,-132.725,192.948,460.221,268.447)"><stop offset="0" style="stop-color:white;stop-opacity:1"/><stop offset="1" style="stop-color:rgb(156,185,222);stop-opacity:0.49"/></linearGradient>
    </defs>
</svg>
