<?xml version="1.0" encoding="UTF-8" standalone="no"?>
<!DOCTYPE svg PUBLIC "-//W3C//DTD SVG 1.1//EN" "http://www.w3.org/Graphics/SVG/1.1/DTD/svg11.dtd">
<svg width="100%" height="100%" viewBox="0 0 802 622" version="1.1" xmlns="http://www.w3.org/2000/svg" xmlns:xlink="http://www.w3.org/1999/xlink" xml:space="preserve" xmlns:serif="http://www.serif.com/" style="fill-rule:evenodd;clip-rule:evenodd;stroke-linejoin:round;stroke-miterlimit:2;">
    <g transform="matrix(1,0,0,1,-99.4857,-206.378)">
        <g transform="matrix(1.11329,0,0,1.11329,-229.076,-45.9519)">
            <g transform="matrix(0.494882,0,0,0.494882,442.559,221.835)">
                <g transform="matrix(-0.999552,0.0299194,-0.0299194,-0.999552,1018.2,992.962)">
                    <path d="M406.751,8.846C427.21,38.418 461.359,57.803 500,57.803C524.189,57.803 546.617,50.207 565.033,37.269C579.168,54.781 598.634,68.265 621.886,74.933C659.03,85.583 697.199,76.363 725.017,53.575C723.245,89.491 738.537,125.658 769.193,149.181C799.843,172.7 838.728,178.112 872.954,167.114L872.966,167.127C858.164,199.888 859.139,239.135 879.037,272.252C898.939,305.373 933.142,324.661 969.028,326.966C943.238,352.026 929.755,388.906 936.133,427.016C942.51,465.127 967.265,495.608 999.809,510.906C966.629,524.769 940.568,554.142 932.534,591.938C924.5,629.734 936.361,667.167 961.034,693.328C925.082,694.066 890.069,711.843 868.742,744.065C847.418,776.282 844.732,815.45 858.089,848.818L858.073,848.835C824.366,836.356 785.281,840.067 753.634,862.227C721.981,884.39 705.127,919.856 705.33,955.815C678.533,931.836 640.802,920.959 603.229,929.979C565.656,939 536.976,965.821 523.986,999.352C507.842,967.22 476.723,943.272 438.458,937.894C400.193,932.516 363.679,946.959 339.303,973.397C336.059,937.584 315.883,903.897 282.252,884.869C248.62,865.841 209.353,865.897 176.998,881.555L176.989,881.547C187.092,847.051 180.666,808.313 156.348,778.284C132.031,748.254 95.476,733.915 59.618,736.626C81.67,708.221 89.888,669.824 78.269,632.971C66.649,596.119 37.893,569.38 3.537,558.76C34.465,540.414 56.184,507.7 58.88,469.154C61.575,430.607 44.62,395.189 16.547,372.717C52.046,366.983 84.244,344.506 100.879,309.629C117.514,274.753 114.72,235.585 96.836,204.388C131.967,212.063 170.162,202.95 198.422,176.597C226.682,150.244 238.437,112.778 233.231,77.197C263.105,97.214 301.982,102.734 337.934,88.572C373.886,74.41 398.555,43.859 406.751,8.846Z" style="fill:rgb(255,105,77);"/>
                </g>
                <g transform="matrix(0.897673,0,0,0.897673,70.0725,57.0648)">
                    <circle cx="478.936" cy="493.426" r="391.365" style="fill:rgb(255,219,77);"/>
                    <clipPath id="_clip1">
                        <circle cx="478.936" cy="493.426" r="391.365"/>
                    </clipPath>
                    <g clip-path="url(#_clip1)">
                        <g transform="matrix(1.11399,0,0,1.11399,-79.0787,-36.388)">
                            <path d="M125.572,415.687C98.099,542.207 118.532,633.772 167.504,701.757C239.511,801.723 381.366,850.524 555.298,876.63C585.014,880.103 669.104,869.084 672.577,839.368C676.05,809.652 725.231,795.332 695.515,791.859C575.887,781.818 344.218,739.194 273.724,688.88C202.793,638.253 170.06,556.689 189.414,427.383C192.642,409.766 180.959,392.842 163.342,389.614C145.724,386.387 128.8,398.069 125.572,415.687Z" style="fill:url(#_Linear2);"/>
                        </g>
                    </g>
                </g>
                <g transform="matrix(0.255115,0.966911,-0.966911,0.255115,853.392,-99.7926)">
                    <path d="M247.228,244.773C300.531,221.272 356.302,208.929 411.691,202.742C449.29,198.542 486.521,198.131 522.928,200.454C537.786,201.403 552.501,202.448 567.027,204.164C589.369,206.803 611.199,210.428 632.408,215.653C688.726,229.527 740.306,252.395 782.009,287.449C788.241,293.488 798.205,293.332 804.245,287.1C810.285,280.868 810.128,270.904 803.896,264.864C763.149,219.363 710.02,184.449 649.13,161.621C625.905,152.914 601.552,146.331 576.426,141.727C560.099,138.735 543.435,136.602 526.56,135.783C485.745,133.802 443.784,137.334 402.391,146.416C343.393,159.361 285.996,183.467 232.497,216.987C224.829,221.052 221.904,230.578 225.97,238.245C230.035,245.913 239.56,248.838 247.228,244.773Z" style="fill:url(#_Linear3);"/>
                </g>
                <g transform="matrix(0.897673,0,0,0.897673,70.0725,57.0648)">
                    <path d="M478.936,45.994C231.991,45.994 31.504,246.482 31.504,493.426C31.504,740.37 231.991,940.858 478.936,940.858C725.88,940.858 926.368,740.37 926.368,493.426C926.368,246.482 725.88,45.994 478.936,45.994ZM478.936,102.061C694.936,102.061 870.3,277.426 870.3,493.426C870.3,709.426 694.936,884.791 478.936,884.791C262.935,884.791 87.571,709.426 87.571,493.426C87.571,277.426 262.935,102.061 478.936,102.061Z" style="fill:rgb(255,157,77);"/>
                </g>
                <g transform="matrix(0.989012,0.147835,-0.147835,0.989012,122.377,-49.3838)">
                    <path d="M298.902,418.797C308.075,411.983 316.947,407.722 325.578,404.352C329.974,402.636 334.275,401.749 338.516,400.909C342.603,400.099 346.619,400.04 350.666,400.042C355.518,400.044 360.394,400.213 365.438,401.466C368.866,402.317 372.373,403.089 375.962,404.475C384.552,407.792 393.459,412.068 402.818,418.871C405.794,421.852 410.63,421.856 413.612,418.88C416.593,415.905 416.598,411.068 413.622,408.087C407.046,398.937 400.354,391.725 393.293,385.66C387.387,380.585 381.229,376.926 374.962,374.065C367.085,370.468 358.929,368.612 350.845,368.603C340.121,368.592 329.385,371.465 319.433,377.397C308.068,384.171 297.75,394.304 287.954,408.16C285.018,411.182 285.088,416.018 288.11,418.953C291.131,421.888 295.967,421.818 298.902,418.797Z" style="fill:rgb(64,55,19);"/>
                </g>
                <g transform="matrix(0.982352,0.187044,-0.187044,0.982352,368.338,-22.1823)">
                    <path d="M298.902,418.797C308.075,411.983 316.947,407.722 325.578,404.352C329.974,402.636 334.275,401.749 338.516,400.909C342.603,400.099 346.619,400.04 350.666,400.042C355.518,400.044 360.394,400.213 365.438,401.466C368.866,402.317 372.373,403.089 375.962,404.475C384.552,407.792 393.459,412.068 402.818,418.871C405.794,421.852 410.63,421.856 413.612,418.88C416.593,415.905 416.598,411.068 413.622,408.087C407.046,398.937 400.354,391.725 393.293,385.66C387.387,380.585 381.229,376.926 374.962,374.065C367.085,370.468 358.929,368.612 350.845,368.603C340.121,368.592 329.385,371.465 319.433,377.397C308.068,384.171 297.75,394.304 287.954,408.16C285.018,411.182 285.088,416.018 288.11,418.953C291.131,421.888 295.967,421.818 298.902,418.797Z" style="fill:rgb(64,55,19);"/>
                </g>
                <g transform="matrix(1.46427,0.238022,0.160448,-0.987044,-86.6211,892.95)">
                    <path d="M291.172,408.654C301.964,395.341 312.948,385.324 324.478,379.195C333.073,374.627 341.917,372.295 350.821,372.229C354.4,372.203 357.993,372.683 361.575,373.535C366.762,374.768 371.937,376.711 377.077,379.533C388.344,385.718 399.387,395.379 410.435,408.613C412.245,410.426 412.723,414.079 411.5,416.765C410.277,419.451 407.815,420.158 406.005,418.345C396.672,410.68 387.587,405.463 378.674,401.836C374.9,400.3 371.182,399.218 367.49,398.294C361.84,396.879 356.284,396.472 350.752,396.416C343.299,396.341 335.924,397.228 328.461,399.677C317.637,403.23 306.713,408.946 295.684,418.303C293.89,420.15 291.421,419.489 290.176,416.826C288.931,414.163 289.377,410.502 291.172,408.654Z" style="fill:rgb(64,55,19);"/>
                </g>
                <g transform="matrix(0.977855,0.209286,-0.209286,0.977855,66.7277,-81.4697)">
                    <ellipse cx="354.769" cy="482.102" rx="54.61" ry="17.898" style="fill:rgb(255,153,153);fill-opacity:0.62;"/>
                </g>
                <g transform="matrix(0.977855,0.209286,-0.209286,0.977855,66.7277,-81.4697)">
                    <path d="M354.769,432.754C324.765,421.715 300.192,427.033 283.275,430.194C275.122,431.718 271.24,438.253 265.678,441.299C249.319,450.258 251.495,467.936 247.026,482.102C242.697,496.695 254.02,508.6 262.997,525.474C266.157,531.414 273.306,534.29 279.709,540.327C289.406,549.47 306.413,555.475 327.603,561.498C335.862,563.845 345.152,563.965 354.769,564.773C361.815,564.333 368.698,564.383 375.061,562.961C399.513,557.498 419.437,550.781 430.088,540.787C436.584,534.693 443.671,531.782 446.825,525.747C455.721,508.724 467.209,496.792 462.944,482.102C458.551,467.83 460.755,449.781 444.205,440.967C438.516,437.938 434.71,431.358 426.397,429.956C409.361,427.083 384.832,421.523 354.769,432.754ZM364.543,499.697C390.026,498.202 409.378,490.887 409.378,482.102C409.378,472.224 384.908,464.204 354.769,464.204C324.629,464.204 300.159,472.224 300.159,482.102C300.159,490.877 319.467,498.185 344.909,499.693C334.969,504.159 326.018,509.84 330.134,514.645C330.924,515.567 332.34,516.665 332.952,515.925C335.332,513.045 339.847,513.638 341.018,510.949C342.836,506.777 345.322,503.183 347.622,499.829C349.959,499.948 352.345,500 354.769,500C357.035,500 359.269,499.955 361.462,499.852C363.793,503.297 366.322,506.986 368.142,511.277C369.317,514.046 374.04,513.189 376.409,516.201C377.035,516.996 378.495,515.774 379.338,514.811C383.532,510.02 374.524,504.242 364.543,499.697ZM374.898,439.161C375.051,439.289 375.171,439.362 375.246,439.356C375.322,439.35 375.352,439.263 375.325,439.07C375.252,438.541 375.098,438.695 374.898,439.161ZM334.581,439.768C334.462,439.435 334.358,439.186 334.275,439.098C334.191,439.01 334.126,439.083 334.085,439.394C334.023,439.871 334.217,439.937 334.581,439.768Z" style="fill:none;"/>
                </g>
                <g transform="matrix(0.977855,0.209286,-0.209286,0.977855,463.558,-6.50965)">
                    <ellipse cx="354.769" cy="482.102" rx="54.61" ry="17.898" style="fill:rgb(255,153,153);fill-opacity:0.62;"/>
                </g>
                <g transform="matrix(0.977855,0.209286,-0.209286,0.977855,463.558,-6.50965)">
                    <path d="M354.769,432.754C324.765,421.715 300.192,427.033 283.275,430.194C275.122,431.718 271.24,438.253 265.678,441.299C249.319,450.258 251.495,467.936 247.026,482.102C242.697,496.695 254.02,508.6 262.997,525.474C266.157,531.414 273.306,534.29 279.709,540.327C289.406,549.47 306.413,555.475 327.603,561.498C335.862,563.845 345.152,563.965 354.769,564.773C361.815,564.333 368.698,564.383 375.061,562.961C399.513,557.498 419.437,550.781 430.088,540.787C436.584,534.693 443.671,531.782 446.825,525.747C455.721,508.724 467.209,496.792 462.944,482.102C458.551,467.83 460.755,449.781 444.205,440.967C438.516,437.938 434.71,431.358 426.397,429.956C409.361,427.083 384.832,421.523 354.769,432.754ZM364.543,499.697C390.026,498.202 409.378,490.887 409.378,482.102C409.378,472.224 384.908,464.204 354.769,464.204C324.629,464.204 300.159,472.224 300.159,482.102C300.159,490.877 319.467,498.185 344.909,499.693C334.969,504.159 326.018,509.84 330.134,514.645C330.924,515.567 332.34,516.665 332.952,515.925C335.332,513.045 339.847,513.638 341.018,510.949C342.836,506.777 345.322,503.183 347.622,499.829C349.959,499.948 352.345,500 354.769,500C357.035,500 359.269,499.955 361.462,499.852C363.793,503.297 366.322,506.986 368.142,511.277C369.317,514.046 374.04,513.189 376.409,516.201C377.035,516.996 378.495,515.774 379.338,514.811C383.532,510.02 374.524,504.242 364.543,499.697ZM374.898,439.161C375.051,439.289 375.171,439.362 375.246,439.356C375.322,439.35 375.352,439.263 375.325,439.07C375.252,438.541 375.098,438.695 374.898,439.161ZM334.581,439.768C334.462,439.435 334.358,439.186 334.275,439.098C334.191,439.01 334.126,439.083 334.085,439.394C334.023,439.871 334.217,439.937 334.581,439.768Z" style="fill:none;"/>
                </g>
            </g>
            <g transform="matrix(0.578034,0,0,0.578034,221.942,298.199)">
                <path d="M261.939,500.189C260.999,492.81 260.517,485.313 260.517,477.717C260.517,367.159 362.743,277.4 488.658,277.4C599.072,277.4 691.272,346.421 712.295,437.949L713.682,437.949C815.823,437.949 898.748,507.167 898.748,592.425C898.748,657.655 850.205,713.497 781.66,736.129C766.245,743.051 749.164,746.9 731.19,746.9L268.81,746.9C200.676,746.9 145.36,691.584 145.36,623.45C145.36,557.619 197,503.754 261.939,500.189Z" style="fill:rgb(204,219,238);"/>
                <path d="M746.797,457.587C856.343,536.534 879.625,607.703 834.157,659.743C793.719,706.026 705.433,735.365 586.887,740.371C583.283,740.441 580.414,743.425 580.485,747.028C580.555,750.632 583.539,753.501 587.142,753.43C713.333,753.812 807.778,724.173 852.968,676.943C910.053,617.281 896.152,527.49 769.655,427.335C761.307,421.027 749.408,422.684 743.1,431.032C736.792,439.38 738.448,451.279 746.797,457.587Z" style="fill:url(#_Linear4);"/>
                <path d="M134.36,580.352C136.668,674.997 189.198,725.373 266.38,747.831C355.101,773.648 477.39,761.337 584.024,741.583C587.543,741.016 589.94,737.698 589.373,734.179C588.806,730.66 585.533,728.837 581.969,728.83C456.988,728.59 384.918,721.954 295.778,715.373C222.274,709.946 170.121,657.83 171.86,580.316C171.85,569.968 163.44,561.574 153.092,561.584C142.744,561.594 134.35,570.004 134.36,580.352Z" style="fill:url(#_Linear5);"/>
                <path d="M470.425,294.972C537.916,316.967 590.248,342.162 628.445,368.461C669.419,396.673 693.998,425.498 702.806,452.338C703.777,455.768 709.435,455.067 712.865,454.096C716.295,453.125 716.207,452.249 715.236,448.819C708.044,418.741 684.271,384.744 642.108,350.27C604.494,319.516 552.075,288.613 483.503,259.827C473.805,256.218 463,261.162 459.391,270.861C455.782,280.559 460.726,291.363 470.425,294.972Z" style="fill:url(#_Linear6);"/>
                <path d="M241.861,483.807C176.252,496.417 126.61,554.18 126.61,623.45C126.61,701.933 190.328,765.65 268.81,765.65L731.19,765.65C751.553,765.65 770.92,761.357 788.447,753.632C864.614,728.126 917.498,665.088 917.498,592.425C917.498,501.485 833.885,425.309 726.738,419.55C698.121,327.318 602.646,258.65 488.658,258.65C351.767,258.65 241.767,357.522 241.767,477.717C241.767,479.754 241.798,481.784 241.861,483.807ZM262.967,518.911C268.166,518.625 273.012,516.191 276.345,512.191C279.677,508.191 281.197,502.985 280.539,497.82C279.698,491.219 279.267,484.512 279.267,477.717C279.267,376.793 373.715,296.15 488.658,296.15C589.716,296.15 674.779,358.374 694.021,442.147C695.977,450.663 703.557,456.699 712.295,456.699L713.682,456.699C804.638,456.699 879.998,516.503 879.998,592.425C879.998,649.939 836.218,698.369 775.781,718.325C775.169,718.527 774.568,718.761 773.979,719.025C760.911,724.893 746.428,728.15 731.19,728.15C731.19,728.15 268.81,728.15 268.81,728.15C211.024,728.15 164.11,681.236 164.11,623.45C164.11,567.622 207.895,521.934 262.967,518.911Z" style="fill:rgb(27,51,81);"/>
                <path d="M263.769,518.849C302.219,515.08 327.35,536.829 338.892,560.441C345.714,574.398 348.597,588.879 344.676,598.019C340.597,607.529 345.006,618.562 354.517,622.642C364.027,626.721 375.061,622.312 379.14,612.801C384.656,599.941 385.337,581.243 379.502,561.652C367.245,520.499 327.288,474.943 260.11,481.528C249.811,482.538 242.269,491.719 243.279,502.018C244.288,512.317 253.47,519.859 263.769,518.849Z" style="fill:rgb(27,51,81);"/>
            </g>
            <g transform="matrix(-0.578034,0,0,0.578034,1087.83,342.315)">
                <path d="M261.939,500.189C260.999,492.81 260.517,485.313 260.517,477.717C260.517,367.159 362.743,277.4 488.658,277.4C599.072,277.4 691.272,346.421 712.295,437.949L713.682,437.949C815.823,437.949 898.748,507.167 898.748,592.425C898.748,657.655 850.205,713.497 781.66,736.129C766.245,743.051 749.164,746.9 731.19,746.9L268.81,746.9C200.676,746.9 145.36,691.584 145.36,623.45C145.36,557.619 197,503.754 261.939,500.189Z" style="fill:rgb(204,219,238);"/>
                <path d="M746.797,457.587C856.343,536.534 879.625,607.703 834.157,659.743C793.719,706.026 705.433,735.365 586.887,740.371C583.283,740.441 580.414,743.425 580.485,747.028C580.555,750.632 583.539,753.501 587.142,753.43C713.333,753.812 807.778,724.173 852.968,676.943C910.053,617.281 896.152,527.49 769.655,427.335C761.307,421.027 749.408,422.684 743.1,431.032C736.792,439.38 738.448,451.279 746.797,457.587Z" style="fill:url(#_Linear7);"/>
                <path d="M134.36,580.352C136.668,674.997 189.198,725.373 266.38,747.831C355.101,773.648 477.39,761.337 584.024,741.583C587.543,741.016 589.94,737.698 589.373,734.179C588.806,730.66 585.533,728.837 581.969,728.83C456.988,728.59 384.918,721.954 295.778,715.373C222.274,709.946 170.121,657.83 171.86,580.316C171.85,569.968 163.44,561.574 153.092,561.584C142.744,561.594 134.35,570.004 134.36,580.352Z" style="fill:url(#_Linear8);"/>
                <path d="M470.425,294.972C537.916,316.967 590.248,342.162 628.445,368.461C669.419,396.673 693.998,425.498 702.806,452.338C703.777,455.768 709.435,455.067 712.865,454.096C716.295,453.125 716.207,452.249 715.236,448.819C708.044,418.741 684.271,384.744 642.108,350.27C604.494,319.516 552.075,288.613 483.503,259.827C473.805,256.218 463,261.162 459.391,270.861C455.782,280.559 460.726,291.363 470.425,294.972Z" style="fill:url(#_Linear9);"/>
                <path d="M241.861,483.807C176.252,496.417 126.61,554.18 126.61,623.45C126.61,701.933 190.328,765.65 268.81,765.65L731.19,765.65C751.553,765.65 770.92,761.357 788.447,753.632C864.614,728.126 917.498,665.088 917.498,592.425C917.498,501.485 833.885,425.309 726.738,419.55C698.121,327.318 602.646,258.65 488.658,258.65C351.767,258.65 241.767,357.522 241.767,477.717C241.767,479.754 241.798,481.784 241.861,483.807ZM262.967,518.911C268.166,518.625 273.012,516.191 276.345,512.191C279.677,508.191 281.197,502.985 280.539,497.82C279.698,491.219 279.267,484.512 279.267,477.717C279.267,376.793 373.715,296.15 488.658,296.15C589.716,296.15 674.779,358.374 694.021,442.147C695.977,450.663 703.557,456.699 712.295,456.699L713.682,456.699C804.638,456.699 879.998,516.503 879.998,592.425C879.998,649.939 836.218,698.369 775.781,718.325C775.169,718.527 774.568,718.761 773.979,719.025C760.911,724.893 746.428,728.15 731.19,728.15C731.19,728.15 268.81,728.15 268.81,728.15C211.024,728.15 164.11,681.236 164.11,623.45C164.11,567.622 207.895,521.934 262.967,518.911Z" style="fill:rgb(27,51,81);"/>
                <path d="M263.769,518.849C302.219,515.08 327.35,536.829 338.892,560.441C345.714,574.398 348.597,588.879 344.676,598.019C340.597,607.529 345.006,618.562 354.517,622.642C364.027,626.721 375.061,622.312 379.14,612.801C384.656,599.941 385.337,581.243 379.502,561.652C367.245,520.499 327.288,474.943 260.11,481.528C249.811,482.538 242.269,491.719 243.279,502.018C244.288,512.317 253.47,519.859 263.769,518.849Z" style="fill:rgb(27,51,81);"/>
            </g>
        </g>
    </g>
    <defs>
        <linearGradient id="_Linear2" x1="0" y1="0" x2="1" y2="0" gradientUnits="userSpaceOnUse" gradientTransform="matrix(4.43461,524.959,-524.959,4.43461,165.964,390.951)"><stop offset="0" style="stop-color:rgb(255,157,77);stop-opacity:0"/><stop offset="1" style="stop-color:rgb(255,157,77);stop-opacity:0.36"/></linearGradient>
        <linearGradient id="_Linear3" x1="0" y1="0" x2="1" y2="0" gradientUnits="userSpaceOnUse" gradientTransform="matrix(553.09,0,0,108.86,239.863,221.726)"><stop offset="0" style="stop-color:rgb(255,157,77);stop-opacity:0.22"/><stop offset="0.5" style="stop-color:white;stop-opacity:0.23"/><stop offset="1" style="stop-color:rgb(255,157,77);stop-opacity:0.38"/></linearGradient>
        <linearGradient id="_Linear4" x1="0" y1="0" x2="1" y2="0" gradientUnits="userSpaceOnUse" gradientTransform="matrix(283.405,0,0,304.439,587.014,594.681)"><stop offset="0" style="stop-color:white;stop-opacity:1"/><stop offset="1" style="stop-color:rgb(60,113,180);stop-opacity:0.02"/></linearGradient>
        <linearGradient id="_Linear5" x1="0" y1="0" x2="1" y2="0" gradientUnits="userSpaceOnUse" gradientTransform="matrix(123.019,185.018,-185.018,123.019,150.792,561.882)"><stop offset="0" style="stop-color:rgb(73,127,194);stop-opacity:0.76"/><stop offset="1" style="stop-color:rgb(69,114,170);stop-opacity:0.27"/></linearGradient>
        <linearGradient id="_Linear6" x1="0" y1="0" x2="1" y2="0" gradientUnits="userSpaceOnUse" gradientTransform="matrix(192.948,132.725,-132.725,192.948,460.221,268.447)"><stop offset="0" style="stop-color:white;stop-opacity:1"/><stop offset="1" style="stop-color:rgb(156,185,222);stop-opacity:0.49"/></linearGradient>
        <linearGradient id="_Linear7" x1="0" y1="0" x2="1" y2="0" gradientUnits="userSpaceOnUse" gradientTransform="matrix(283.405,0,0,304.439,587.014,594.681)"><stop offset="0" style="stop-color:white;stop-opacity:1"/><stop offset="1" style="stop-color:rgb(60,113,180);stop-opacity:0.02"/></linearGradient>
        <linearGradient id="_Linear8" x1="0" y1="0" x2="1" y2="0" gradientUnits="userSpaceOnUse" gradientTransform="matrix(123.019,185.018,-185.018,123.019,150.792,561.882)"><stop offset="0" style="stop-color:rgb(73,127,194);stop-opacity:0.76"/><stop offset="1" style="stop-color:rgb(69,114,170);stop-opacity:0.27"/></linearGradient>
        <linearGradient id="_Linear9" x1="0" y1="0" x2="1" y2="0" gradientUnits="userSpaceOnUse" gradientTransform="matrix(192.948,132.725,-132.725,192.948,460.221,268.447)"><stop offset="0" style="stop-color:white;stop-opacity:1"/><stop offset="1" style="stop-color:rgb(156,185,222);stop-opacity:0.49"/></linearGradient>
    </defs>
</svg>
