<?xml version="1.0" encoding="UTF-8" standalone="no"?>
<!DOCTYPE svg PUBLIC "-//W3C//DTD SVG 1.1//EN" "http://www.w3.org/Graphics/SVG/1.1/DTD/svg11.dtd">
<svg width="100%" height="100%" viewBox="0 0 791 676" version="1.1" xmlns="http://www.w3.org/2000/svg" xmlns:xlink="http://www.w3.org/1999/xlink" xml:space="preserve" xmlns:serif="http://www.serif.com/" style="fill-rule:evenodd;clip-rule:evenodd;stroke-linecap:round;stroke-linejoin:round;stroke-miterlimit:1.5;">
    <g transform="matrix(1,0,0,1,-142.838,-72.644)">
        <g transform="matrix(1,0,0,1,16.2284,-186.002)">
            <path d="M261.939,500.189C260.999,492.81 260.517,485.313 260.517,477.717C260.517,367.159 362.743,277.4 488.658,277.4C599.072,277.4 691.272,346.421 712.295,437.949L713.682,437.949C815.823,437.949 898.748,507.167 898.748,592.425C898.748,657.655 850.205,713.497 781.66,736.129C766.245,743.051 749.164,746.9 731.19,746.9L268.81,746.9C200.676,746.9 145.36,691.584 145.36,623.45C145.36,557.619 197,503.754 261.939,500.189Z" style="fill:rgb(204,219,238);"/>
            <path d="M746.797,457.587C856.343,536.534 879.625,607.703 834.157,659.743C793.719,706.026 705.433,735.365 586.887,740.371C583.283,740.441 580.414,743.425 580.485,747.028C580.555,750.632 583.539,753.501 587.142,753.43C713.333,753.812 807.778,724.173 852.968,676.943C910.053,617.281 896.152,527.49 769.655,427.335C761.307,421.027 749.408,422.684 743.1,431.032C736.792,439.38 738.448,451.279 746.797,457.587Z" style="fill:url(#_Linear1);"/>
            <path d="M134.36,580.352C136.668,674.997 189.198,725.373 266.38,747.831C355.101,773.648 477.39,761.337 584.024,741.583C587.543,741.016 589.94,737.698 589.373,734.179C588.806,730.66 585.533,728.837 581.969,728.83C456.988,728.59 384.918,721.954 295.778,715.373C222.274,709.946 170.121,657.83 171.86,580.316C171.85,569.968 163.44,561.574 153.092,561.584C142.744,561.594 134.35,570.004 134.36,580.352Z" style="fill:url(#_Linear2);"/>
            <path d="M470.425,294.972C537.916,316.967 590.248,342.162 628.445,368.461C669.419,396.673 693.998,425.498 702.806,452.338C703.777,455.768 709.435,455.067 712.865,454.096C716.295,453.125 716.207,452.249 715.236,448.819C708.044,418.741 684.271,384.744 642.108,350.27C604.494,319.516 552.075,288.613 483.503,259.827C473.805,256.218 463,261.162 459.391,270.861C455.782,280.559 460.726,291.363 470.425,294.972Z" style="fill:url(#_Linear3);"/>
            <path d="M241.861,483.807C176.252,496.417 126.61,554.18 126.61,623.45C126.61,701.933 190.328,765.65 268.81,765.65L731.19,765.65C751.553,765.65 770.92,761.357 788.447,753.632C864.614,728.126 917.498,665.088 917.498,592.425C917.498,501.485 833.885,425.309 726.738,419.55C698.121,327.318 602.646,258.65 488.658,258.65C351.767,258.65 241.767,357.522 241.767,477.717C241.767,479.754 241.798,481.784 241.861,483.807ZM262.967,518.911C268.166,518.625 273.012,516.191 276.345,512.191C279.677,508.191 281.197,502.985 280.539,497.82C279.698,491.219 279.267,484.512 279.267,477.717C279.267,376.793 373.715,296.15 488.658,296.15C589.716,296.15 674.779,358.374 694.021,442.147C695.977,450.663 703.557,456.699 712.295,456.699L713.682,456.699C804.638,456.699 879.998,516.503 879.998,592.425C879.998,649.939 836.218,698.369 775.781,718.325C775.169,718.527 774.568,718.761 773.979,719.025C760.911,724.893 746.428,728.15 731.19,728.15C731.19,728.15 268.81,728.15 268.81,728.15C211.024,728.15 164.11,681.236 164.11,623.45C164.11,567.622 207.895,521.934 262.967,518.911Z" style="fill:rgb(27,51,81);"/>
            <path d="M261.939,500.189C341.986,492.342 375.714,573.222 361.908,605.41" style="fill:none;stroke:rgb(27,51,81);stroke-width:37.5px;"/>
        </g>
        <g transform="matrix(1,0,0,1,29.9372,0)">
            <g transform="matrix(1,0,0,1,-23.4128,-12.1269)">
                <path d="M329.658,630.629L278.168,741.148" style="fill:none;stroke:rgb(27,51,81);stroke-width:37.5px;"/>
            </g>
            <g transform="matrix(1,0,0,1,102.962,-12.1269)">
                <path d="M329.658,630.629L278.168,741.148" style="fill:none;stroke:rgb(27,51,81);stroke-width:37.5px;"/>
            </g>
            <g transform="matrix(1,0,0,1,229.338,-12.1269)">
                <path d="M329.658,630.629L278.168,741.148" style="fill:none;stroke:rgb(27,51,81);stroke-width:37.5px;"/>
            </g>
            <g transform="matrix(1,0,0,1,355.713,-12.1269)">
                <path d="M329.658,630.629L278.168,741.148" style="fill:none;stroke:rgb(27,51,81);stroke-width:37.5px;"/>
            </g>
        </g>
    </g>
    <defs>
        <linearGradient id="_Linear1" x1="0" y1="0" x2="1" y2="0" gradientUnits="userSpaceOnUse" gradientTransform="matrix(283.405,0,0,304.439,587.014,594.681)"><stop offset="0" style="stop-color:white;stop-opacity:1"/><stop offset="1" style="stop-color:rgb(60,113,180);stop-opacity:0.02"/></linearGradient>
        <linearGradient id="_Linear2" x1="0" y1="0" x2="1" y2="0" gradientUnits="userSpaceOnUse" gradientTransform="matrix(123.019,185.018,-185.018,123.019,150.792,561.882)"><stop offset="0" style="stop-color:rgb(73,127,194);stop-opacity:0.76"/><stop offset="1" style="stop-color:rgb(69,114,170);stop-opacity:0.27"/></linearGradient>
        <linearGradient id="_Linear3" x1="0" y1="0" x2="1" y2="0" gradientUnits="userSpaceOnUse" gradientTransform="matrix(192.948,132.725,-132.725,192.948,460.221,268.447)"><stop offset="0" style="stop-color:white;stop-opacity:1"/><stop offset="1" style="stop-color:rgb(156,185,222);stop-opacity:0.49"/></linearGradient>
    </defs>
</svg>
