<?xml version="1.0" encoding="UTF-8" standalone="no"?>
<!DOCTYPE svg PUBLIC "-//W3C//DTD SVG 1.1//EN" "http://www.w3.org/Graphics/SVG/1.1/DTD/svg11.dtd">
<svg width="100%" height="100%" viewBox="0 0 1000 1000" version="1.1" xmlns="http://www.w3.org/2000/svg" xmlns:xlink="http://www.w3.org/1999/xlink" xml:space="preserve" xmlns:serif="http://www.serif.com/" style="fill-rule:evenodd;clip-rule:evenodd;stroke-linejoin:round;stroke-miterlimit:2;">
    <g>
        <g transform="matrix(-0.999552,0.0299194,-0.0299194,-0.999552,1018.2,992.962)">
            <path d="M406.751,8.846C427.21,38.418 461.359,57.803 500,57.803C524.189,57.803 546.617,50.207 565.033,37.269C579.168,54.781 598.634,68.265 621.886,74.933C659.03,85.583 697.199,76.363 725.017,53.575C723.245,89.491 738.537,125.658 769.193,149.181C799.843,172.7 838.728,178.112 872.954,167.114L872.966,167.127C858.164,199.888 859.139,239.135 879.037,272.252C898.939,305.373 933.142,324.661 969.028,326.966C943.238,352.026 929.755,388.906 936.133,427.016C942.51,465.127 967.265,495.608 999.809,510.906C966.629,524.769 940.568,554.142 932.534,591.938C924.5,629.734 936.361,667.167 961.034,693.328C925.082,694.066 890.069,711.843 868.742,744.065C847.418,776.282 844.732,815.45 858.089,848.818L858.073,848.835C824.366,836.356 785.281,840.067 753.634,862.227C721.981,884.39 705.127,919.856 705.33,955.815C678.533,931.836 640.802,920.959 603.229,929.979C565.656,939 536.976,965.821 523.986,999.352C507.842,967.22 476.723,943.272 438.458,937.894C400.193,932.516 363.679,946.959 339.303,973.397C336.059,937.584 315.883,903.897 282.252,884.869C248.62,865.841 209.353,865.897 176.998,881.555L176.989,881.547C187.092,847.051 180.666,808.313 156.348,778.284C132.031,748.254 95.476,733.915 59.618,736.626C81.67,708.221 89.888,669.824 78.269,632.971C66.649,596.119 37.893,569.38 3.537,558.76C34.465,540.414 56.184,507.7 58.88,469.154C61.575,430.607 44.62,395.189 16.547,372.717C52.046,366.983 84.244,344.506 100.879,309.629C117.514,274.753 114.72,235.585 96.836,204.388C131.967,212.063 170.162,202.95 198.422,176.597C226.682,150.244 238.437,112.778 233.231,77.197C263.105,97.214 301.982,102.734 337.934,88.572C373.886,74.41 398.555,43.859 406.751,8.846Z" style="fill:rgb(255,105,77);"/>
        </g>
        <g transform="matrix(0.897673,0,0,0.897673,70.0725,57.0648)">
            <circle cx="478.936" cy="493.426" r="391.365" style="fill:rgb(255,219,77);"/>
            <clipPath id="_clip1">
                <circle cx="478.936" cy="493.426" r="391.365"/>
            </clipPath>
            <g clip-path="url(#_clip1)">
                <g transform="matrix(1.11399,0,0,1.11399,-79.0787,-36.388)">
                    <path d="M125.572,415.687C98.099,542.207 118.532,633.772 167.504,701.757C239.511,801.723 381.366,850.524 555.298,876.63C585.014,880.103 669.104,869.084 672.577,839.368C676.05,809.652 725.231,795.332 695.515,791.859C575.887,781.818 344.218,739.194 273.724,688.88C202.793,638.253 170.06,556.689 189.414,427.383C192.642,409.766 180.959,392.842 163.342,389.614C145.724,386.387 128.8,398.069 125.572,415.687Z" style="fill:url(#_Linear2);"/>
                </g>
            </g>
        </g>
        <g transform="matrix(0.255115,0.966911,-0.966911,0.255115,853.392,-99.7926)">
            <path d="M247.228,244.773C300.531,221.272 356.302,208.929 411.691,202.742C449.29,198.542 486.521,198.131 522.928,200.454C537.786,201.403 552.501,202.448 567.027,204.164C589.369,206.803 611.199,210.428 632.408,215.653C688.726,229.527 740.306,252.395 782.009,287.449C788.241,293.488 798.205,293.332 804.245,287.1C810.285,280.868 810.128,270.904 803.896,264.864C763.149,219.363 710.02,184.449 649.13,161.621C625.905,152.914 601.552,146.331 576.426,141.727C560.099,138.735 543.435,136.602 526.56,135.783C485.745,133.802 443.784,137.334 402.391,146.416C343.393,159.361 285.996,183.467 232.497,216.987C224.829,221.052 221.904,230.578 225.97,238.245C230.035,245.913 239.56,248.838 247.228,244.773Z" style="fill:url(#_Linear3);"/>
        </g>
        <g transform="matrix(0.897673,0,0,0.897673,70.0725,57.0648)">
            <path d="M478.936,45.994C231.991,45.994 31.504,246.482 31.504,493.426C31.504,740.37 231.991,940.858 478.936,940.858C725.88,940.858 926.368,740.37 926.368,493.426C926.368,246.482 725.88,45.994 478.936,45.994ZM478.936,102.061C694.936,102.061 870.3,277.426 870.3,493.426C870.3,709.426 694.936,884.791 478.936,884.791C262.935,884.791 87.571,709.426 87.571,493.426C87.571,277.426 262.935,102.061 478.936,102.061Z" style="fill:rgb(255,157,77);"/>
        </g>
        <g transform="matrix(0.989012,0.147835,-0.147835,0.989012,122.377,-49.3838)">
            <path d="M298.902,418.797C308.075,411.983 316.947,407.722 325.578,404.352C329.974,402.636 334.275,401.749 338.516,400.909C342.603,400.099 346.619,400.04 350.666,400.042C355.518,400.044 360.394,400.213 365.438,401.466C368.866,402.317 372.373,403.089 375.962,404.475C384.552,407.792 393.459,412.068 402.818,418.871C405.794,421.852 410.63,421.856 413.612,418.88C416.593,415.905 416.598,411.068 413.622,408.087C407.046,398.937 400.354,391.725 393.293,385.66C387.387,380.585 381.229,376.926 374.962,374.065C367.085,370.468 358.929,368.612 350.845,368.603C340.121,368.592 329.385,371.465 319.433,377.397C308.068,384.171 297.75,394.304 287.954,408.16C285.018,411.182 285.088,416.018 288.11,418.953C291.131,421.888 295.967,421.818 298.902,418.797Z" style="fill:rgb(64,55,19);"/>
        </g>
        <g transform="matrix(0.982352,0.187044,-0.187044,0.982352,368.338,-22.1823)">
            <path d="M298.902,418.797C308.075,411.983 316.947,407.722 325.578,404.352C329.974,402.636 334.275,401.749 338.516,400.909C342.603,400.099 346.619,400.04 350.666,400.042C355.518,400.044 360.394,400.213 365.438,401.466C368.866,402.317 372.373,403.089 375.962,404.475C384.552,407.792 393.459,412.068 402.818,418.871C405.794,421.852 410.63,421.856 413.612,418.88C416.593,415.905 416.598,411.068 413.622,408.087C407.046,398.937 400.354,391.725 393.293,385.66C387.387,380.585 381.229,376.926 374.962,374.065C367.085,370.468 358.929,368.612 350.845,368.603C340.121,368.592 329.385,371.465 319.433,377.397C308.068,384.171 297.75,394.304 287.954,408.16C285.018,411.182 285.088,416.018 288.11,418.953C291.131,421.888 295.967,421.818 298.902,418.797Z" style="fill:rgb(64,55,19);"/>
        </g>
        <g transform="matrix(1.46427,0.238022,0.160448,-0.987044,-86.6211,892.95)">
            <path d="M291.172,408.654C301.964,395.341 312.948,385.324 324.478,379.195C333.073,374.627 341.917,372.295 350.821,372.229C354.4,372.203 357.993,372.683 361.575,373.535C366.762,374.768 371.937,376.711 377.077,379.533C388.344,385.718 399.387,395.379 410.435,408.613C412.245,410.426 412.723,414.079 411.5,416.765C410.277,419.451 407.815,420.158 406.005,418.345C396.672,410.68 387.587,405.463 378.674,401.836C374.9,400.3 371.182,399.218 367.49,398.294C361.84,396.879 356.284,396.472 350.752,396.416C343.299,396.341 335.924,397.228 328.461,399.677C317.637,403.23 306.713,408.946 295.684,418.303C293.89,420.15 291.421,419.489 290.176,416.826C288.931,414.163 289.377,410.502 291.172,408.654Z" style="fill:rgb(64,55,19);"/>
        </g>
        <g transform="matrix(0.977855,0.209286,-0.209286,0.977855,66.7277,-81.4697)">
            <ellipse cx="354.769" cy="482.102" rx="54.61" ry="17.898" style="fill:rgb(255,153,153);fill-opacity:0.62;"/>
        </g>
        <g transform="matrix(0.977855,0.209286,-0.209286,0.977855,463.558,-6.50965)">
            <ellipse cx="354.769" cy="482.102" rx="54.61" ry="17.898" style="fill:rgb(255,153,153);fill-opacity:0.62;"/>
        </g>
    </g>
    <defs>
        <linearGradient id="_Linear2" x1="0" y1="0" x2="1" y2="0" gradientUnits="userSpaceOnUse" gradientTransform="matrix(4.43461,524.959,-524.959,4.43461,165.964,390.951)"><stop offset="0" style="stop-color:rgb(255,157,77);stop-opacity:0"/><stop offset="1" style="stop-color:rgb(255,157,77);stop-opacity:0.36"/></linearGradient>
        <linearGradient id="_Linear3" x1="0" y1="0" x2="1" y2="0" gradientUnits="userSpaceOnUse" gradientTransform="matrix(553.09,0,0,108.86,239.863,221.726)"><stop offset="0" style="stop-color:rgb(255,157,77);stop-opacity:0.22"/><stop offset="0.5" style="stop-color:white;stop-opacity:0.23"/><stop offset="1" style="stop-color:rgb(255,157,77);stop-opacity:0.38"/></linearGradient>
    </defs>
</svg>
